<?xml version="1.0" encoding="utf-8"?>
<!DOCTYPE svg PUBLIC "-//W3C//DTD SVG 20010904//EN" "http://www.w3.org/TR/2001/REC-SVG-20010904/DTD/svg10.dtd">
<svg version="1.0" xmlns="http://www.w3.org/2000/svg" width="2002pt" height="2002pt" viewBox="0 0 2002 2002" style="" preserveAspectRatio="xMidYMid meet">
<g fill="#FFFFFFFF" stroke="#FFFFFFFF">
<path d="M 693.000 619.166 C 685.025 622.447 669.050 628.980 657.500 633.684 C 645.950 638.388 632.900 643.707 628.500 645.503 C 624.100 647.300 613.075 651.792 604.000 655.486 C 594.925 659.180 583.900 663.680 579.500 665.486 C 575.100 667.292 560.925 673.068 548.000 678.322 C 501.655 697.162 477.666 707.001 477.477 707.249 C 477.157 707.665 408.940 803.144 405.492 808.000 C 403.735 810.475 376.229 848.950 344.367 893.500 C 312.506 938.050 244.770 1032.775 193.843 1104.000 C 142.916 1175.225 89.981 1249.250 76.210 1268.500 L 51.171 1303.500 104.336 1303.745 L 157.500 1303.991 209.097 1231.745 C 237.476 1192.010 272.801 1142.531 287.597 1121.790 L 314.500 1084.080 426.781 1084.040 C 515.718 1084.008 539.161 1084.260 539.534 1085.250 C 539.970 1086.404 541.809 1098.659 545.499 1125.000 C 546.308 1130.775 547.222 1136.963 547.530 1138.750 L 548.091 1142.000 666.545 1142.000 C 779.333 1142.000 785.000 1141.915 785.000 1140.225 C 785.000 1139.248 783.420 1127.661 781.489 1114.475 C 779.558 1101.289 776.148 1077.900 773.911 1062.500 C 771.673 1047.100 769.019 1028.875 768.013 1022.000 C 767.006 1015.125 764.345 996.900 762.100 981.500 C 758.275 955.261 756.037 939.888 746.018 871.000 C 736.543 805.857 733.931 787.949 730.044 761.500 C 727.781 746.100 725.054 727.425 723.983 720.000 C 722.913 712.575 720.266 694.350 718.101 679.500 C 715.936 664.650 712.944 643.950 711.453 633.500 C 709.961 623.050 708.461 614.208 708.120 613.850 C 707.779 613.493 700.975 615.885 693.000 619.166 M 502.810 831.750 C 503.427 836.013 505.778 852.100 508.036 867.500 C 510.293 882.900 513.905 907.650 516.061 922.500 C 519.616 946.974 527.338 999.933 528.711 1009.256 L 529.265 1013.012 447.549 1012.756 L 365.833 1012.500 433.167 918.272 C 470.200 866.447 500.767 824.035 501.094 824.022 C 501.421 824.010 502.193 827.488 502.810 831.750 "/></g>
<g fill="#FFFFFFFF" stroke="#FFFFFFFF">
<path d="M 916.667 689.250 C 916.340 691.038 915.131 697.450 913.980 703.500 C 912.828 709.550 911.027 719.225 909.977 725.000 C 908.928 730.775 907.128 740.450 905.977 746.500 C 904.827 752.550 903.027 762.225 901.977 768.000 C 900.928 773.775 899.128 783.450 897.977 789.500 C 896.827 795.550 895.036 805.225 893.996 811.000 C 892.227 820.829 887.560 845.988 881.477 878.500 C 880.036 886.200 878.243 895.875 877.491 900.000 C 876.740 904.125 874.940 913.800 873.491 921.500 C 872.043 929.200 870.243 938.875 869.491 943.000 C 868.740 947.125 866.940 956.800 865.491 964.500 C 864.043 972.200 862.243 981.875 861.491 986.000 C 860.740 990.125 858.940 999.800 857.491 1007.500 C 854.606 1022.837 852.901 1032.035 849.986 1048.000 C 848.931 1053.775 847.128 1063.450 845.977 1069.500 C 844.827 1075.550 843.027 1085.225 841.977 1091.000 C 840.928 1096.775 839.129 1106.450 837.982 1112.500 C 834.649 1130.065 833.003 1139.406 833.001 1140.755 C 833.000 1141.755 851.264 1141.959 922.685 1141.755 L 1012.369 1141.500 1014.147 1132.000 C 1015.125 1126.775 1017.097 1116.200 1018.531 1108.500 C 1021.631 1091.843 1022.994 1084.569 1026.069 1068.250 L 1028.378 1056.000 1147.558 1056.000 C 1273.443 1056.000 1274.974 1055.950 1288.709 1051.426 C 1315.822 1042.495 1340.211 1021.135 1352.959 995.156 C 1358.372 984.125 1359.283 980.843 1366.466 946.500 C 1370.032 929.450 1373.608 912.350 1374.413 908.500 C 1375.218 904.650 1376.782 897.225 1377.889 892.000 C 1405.744 760.502 1404.444 767.212 1404.429 755.000 C 1404.419 746.861 1403.889 741.746 1402.618 737.500 C 1396.377 716.662 1379.570 699.644 1357.373 691.687 C 1340.551 685.656 1354.528 686.000 1126.173 686.000 L 917.262 686.000 916.667 689.250 M 1208.525 760.035 C 1215.415 761.424 1219.505 764.150 1223.021 769.694 C 1226.202 774.710 1226.757 779.579 1225.052 787.500 C 1223.103 796.552 1216.889 828.384 1214.023 844.000 C 1212.963 849.775 1211.143 859.450 1209.978 865.500 C 1208.814 871.550 1207.236 879.875 1206.472 884.000 C 1205.707 888.125 1203.916 897.125 1202.489 904.000 C 1199.790 917.014 1198.962 921.257 1194.592 944.500 C 1189.477 971.701 1188.168 974.770 1178.736 981.694 C 1169.427 988.527 1165.717 989.000 1121.397 989.000 C 1079.066 989.000 1077.985 988.883 1069.671 983.395 C 1065.317 980.521 1062.055 974.351 1062.022 968.928 C 1062.010 966.964 1063.157 958.639 1064.570 950.428 C 1065.984 942.218 1067.568 932.575 1068.092 929.000 C 1068.616 925.425 1069.253 921.825 1069.507 921.000 C 1069.762 920.175 1070.861 913.875 1071.949 907.000 C 1073.037 900.125 1075.080 887.975 1076.490 880.000 C 1079.680 861.949 1081.692 850.096 1083.536 838.500 C 1084.323 833.550 1085.906 824.325 1087.054 818.000 C 1088.202 811.675 1089.754 803.125 1090.502 799.000 C 1091.250 794.875 1092.151 789.250 1092.504 786.500 C 1094.362 772.012 1105.809 761.112 1121.351 759.035 C 1129.635 757.927 1202.202 758.760 1208.525 760.035 "/></g>
<g fill="#FFFFFFFF" stroke="#FFFFFFFF">
<path d="M 1436.494 687.250 C 1436.249 687.938 1435.163 693.450 1434.080 699.500 C 1432.997 705.550 1430.928 716.800 1429.484 724.500 C 1428.039 732.200 1426.240 741.875 1425.485 746.000 C 1424.730 750.125 1422.527 762.050 1420.589 772.500 C 1418.651 782.950 1416.837 792.738 1416.558 794.250 L 1416.050 797.000 1489.104 797.000 L 1562.159 797.000 1561.597 799.750 C 1561.034 802.506 1555.796 831.427 1551.953 853.000 C 1550.826 859.325 1549.026 869.338 1547.952 875.250 C 1546.879 881.163 1545.122 890.838 1544.048 896.750 C 1541.831 908.965 1538.907 925.028 1536.039 940.750 C 1534.168 951.007 1528.350 983.394 1523.957 1008.000 C 1521.487 1021.839 1517.071 1046.176 1511.983 1074.000 C 1506.111 1106.106 1500.000 1140.328 1500.000 1141.106 C 1500.000 1141.626 1544.539 1142.000 1606.370 1142.000 L 1712.740 1142.000 1713.845 1136.250 C 1714.452 1133.088 1716.562 1121.050 1718.533 1109.500 C 1725.074 1071.166 1737.859 996.586 1741.418 976.000 C 1744.476 958.312 1748.817 933.069 1754.058 902.500 C 1756.226 889.850 1759.820 868.925 1762.045 856.000 C 1769.676 811.657 1772.000 797.867 1772.000 796.934 C 1772.000 796.364 1798.537 796.000 1840.000 796.000 C 1877.400 796.000 1908.000 795.771 1908.000 795.490 C 1908.000 794.954 1913.764 760.987 1919.029 730.500 C 1920.739 720.600 1923.134 706.538 1924.352 699.250 L 1926.565 686.000 1681.751 686.000 C 1486.803 686.000 1436.847 686.255 1436.494 687.250 "/></g>
</svg>
